<svg width="1952" height="600" viewBox="0 0 1952 600" fill="none" xmlns="http://www.w3.org/2000/svg">
<g clip-path="url(#clip0_4673_8764)">
<rect width="1952" height="600" fill="white"/>
<line y1="19.499" x2="2157.17" y2="19.499" stroke="#919CA1" stroke-opacity="0.2"/>
<line x1="2.60059" y1="79.5" x2="2159.77" y2="79.5" stroke="#919CA1" stroke-opacity="0.2"/>
<line x1="5.20215" y1="139.501" x2="2162.38" y2="139.501" stroke="#919CA1" stroke-opacity="0.2"/>
<line x1="7.80469" y1="199.502" x2="2164.98" y2="199.502" stroke="#919CA1" stroke-opacity="0.2"/>
<line x1="10.4053" y1="259.503" x2="2167.58" y2="259.503" stroke="#919CA1" stroke-opacity="0.2"/>
<line x1="13.0059" y1="319.504" x2="2170.18" y2="319.504" stroke="#919CA1" stroke-opacity="0.2"/>
<line x1="15.6074" y1="379.505" x2="2172.78" y2="379.505" stroke="#919CA1" stroke-opacity="0.2"/>
<line x1="18.209" y1="439.506" x2="2175.38" y2="439.506" stroke="#919CA1" stroke-opacity="0.2"/>
<line x1="20.8096" y1="499.507" x2="2177.98" y2="499.507" stroke="#919CA1" stroke-opacity="0.2"/>
<line x1="23.4102" y1="559.508" x2="2180.58" y2="559.508" stroke="#919CA1" stroke-opacity="0.2"/>
<line x1="1916.77" y1="935" x2="1916.77" stroke="#919CA1" stroke-opacity="0.2"/>
<line x1="1838.75" y1="935" x2="1838.75" stroke="#919CA1" stroke-opacity="0.2"/>
<line x1="1760.73" y1="935" x2="1760.73" stroke="#919CA1" stroke-opacity="0.2"/>
<line x1="1682.72" y1="935" x2="1682.72" stroke="#919CA1" stroke-opacity="0.2"/>
<line x1="1604.7" y1="935" x2="1604.7" stroke="#919CA1" stroke-opacity="0.2"/>
<line x1="1526.68" y1="935" x2="1526.68" stroke="#919CA1" stroke-opacity="0.2"/>
<line x1="1448.67" y1="935" x2="1448.67" stroke="#919CA1" stroke-opacity="0.2"/>
<line x1="1370.65" y1="935" x2="1370.65" stroke="#919CA1" stroke-opacity="0.2"/>
<line x1="1292.63" y1="935" x2="1292.63" stroke="#919CA1" stroke-opacity="0.2"/>
<line x1="1214.62" y1="935" x2="1214.62" stroke="#919CA1" stroke-opacity="0.2"/>
<line x1="1136.6" y1="935" x2="1136.6" stroke="#919CA1" stroke-opacity="0.2"/>
<line x1="1058.58" y1="935" x2="1058.58" stroke="#919CA1" stroke-opacity="0.2"/>
<line x1="980.564" y1="935" x2="980.564" stroke="#919CA1" stroke-opacity="0.2"/>
<line x1="902.547" y1="935" x2="902.547" stroke="#919CA1" stroke-opacity="0.2"/>
<line x1="824.53" y1="935" x2="824.53" stroke="#919CA1" stroke-opacity="0.2"/>
<line x1="746.513" y1="935" x2="746.513" stroke="#919CA1" stroke-opacity="0.2"/>
<line x1="668.496" y1="935" x2="668.496" stroke="#919CA1" stroke-opacity="0.2"/>
<line x1="590.479" y1="935" x2="590.479" stroke="#919CA1" stroke-opacity="0.2"/>
<line x1="512.462" y1="935" x2="512.462" stroke="#919CA1" stroke-opacity="0.2"/>
<line x1="434.445" y1="935" x2="434.445" stroke="#919CA1" stroke-opacity="0.2"/>
<line x1="356.428" y1="935" x2="356.428" stroke="#919CA1" stroke-opacity="0.2"/>
<line x1="278.411" y1="935" x2="278.411" stroke="#919CA1" stroke-opacity="0.2"/>
<line x1="200.394" y1="935" x2="200.394" stroke="#919CA1" stroke-opacity="0.2"/>
<line x1="122.377" y1="935" x2="122.377" stroke="#919CA1" stroke-opacity="0.2"/>
<path d="M272.522 186.426C255.522 187.55 238.187 193.02 222.719 204.01C175.861 237.301 167.326 304.298 205.171 347.929C234.024 380.831 282.139 389.778 321.371 370.805C344.429 359.9 359.526 341.643 368.205 321.099C371.533 313.257 367.858 304.23 360.471 300.577C342.07 291.058 325.56 277.456 312.63 259.257C299.7 241.058 292.289 220.992 289.355 200.483C288.338 192.306 281.023 185.864 272.522 186.426Z" fill="#E05FB8"/>
<path d="M531.981 422.542C548.981 421.418 566.316 415.948 581.784 404.958C628.642 371.666 637.177 304.669 599.333 261.039C570.48 228.137 522.364 219.19 483.132 238.163C460.074 249.068 444.977 267.325 436.298 287.869C432.97 295.711 436.646 304.738 444.032 308.39C462.433 317.91 478.943 331.512 491.873 349.711C504.803 367.91 512.214 387.976 515.148 408.485C516.166 416.662 523.481 423.104 531.981 422.542Z" fill="#E05FB8"/>
<path d="M520.301 174.809C519.176 157.809 513.704 140.472 502.713 125.003C469.418 78.1404 402.423 69.599 358.797 107.441C325.899 136.292 316.501 184.731 335.933 223.643C346.84 246.703 365.097 261.801 385.641 270.483C393.483 273.812 402.51 270.137 406.161 262.75C415.679 244.349 429.279 227.84 447.476 214.912C465.673 201.983 485.738 194.573 506.246 191.642C514.423 190.625 520.864 183.31 520.301 174.809Z" fill="#E05FB8"/>
<path d="M284.238 434.165C285.364 451.166 290.835 468.503 301.826 483.972C335.121 530.834 402.117 539.376 445.742 501.534C478.641 472.683 488.038 424.243 468.607 385.332C457.7 362.272 439.442 347.173 418.898 338.492C411.056 335.163 402.029 338.838 398.378 346.224C388.861 364.625 375.261 381.134 357.063 394.063C338.866 406.992 318.801 414.401 298.293 417.333C290.116 418.35 283.675 425.665 284.238 434.165Z" fill="#E05FB8"/>
<path d="M253.007 176.67C236.007 177.794 218.671 183.264 203.204 194.254C156.346 227.546 147.811 294.543 185.655 338.173C214.508 371.075 262.624 380.022 301.856 361.049C324.914 350.144 340.01 331.887 348.69 311.343C352.018 303.501 348.342 294.474 340.955 290.822C322.554 281.302 306.044 267.7 293.114 249.501C280.184 231.302 272.773 211.236 269.84 190.727C268.822 182.55 261.507 176.108 253.007 176.67Z" fill="white" stroke="black" stroke-width="7"/>
<path d="M512.463 412.787C529.463 411.663 546.799 406.193 562.267 395.203C609.125 361.911 617.659 294.914 579.815 251.284C550.962 218.382 502.846 209.435 463.614 228.408C440.556 239.313 425.46 257.57 416.78 278.114C413.452 285.956 417.128 294.983 424.515 298.635C442.916 308.155 459.426 321.757 472.356 339.956C485.286 358.155 492.697 378.221 495.63 398.73C496.648 406.907 503.963 413.349 512.463 412.787Z" fill="white" stroke="black" stroke-width="7"/>
<path d="M500.786 165.055C499.66 148.054 494.188 130.717 483.198 115.248C449.903 68.3855 382.907 59.8441 339.282 97.6857C306.383 126.537 296.986 174.976 316.417 213.888C327.324 236.948 345.582 252.046 366.126 260.728C373.967 264.057 382.994 260.382 386.646 252.995C396.163 234.594 409.763 218.086 427.96 205.157C446.158 192.228 466.223 184.818 486.731 181.887C494.908 180.87 501.348 173.555 500.786 165.055Z" fill="white" stroke="black" stroke-width="7"/>
<path d="M264.722 424.41C265.847 441.411 271.319 458.748 282.309 474.217C315.604 521.079 382.6 529.621 426.225 491.779C459.124 462.928 468.521 414.489 449.09 375.577C438.183 352.517 419.926 337.418 399.381 328.737C391.54 325.408 382.513 329.083 378.862 336.47C369.344 354.87 355.744 371.379 337.547 384.308C319.35 397.237 299.285 404.647 278.777 407.578C270.6 408.595 264.159 415.91 264.722 424.41Z" fill="white" stroke="black" stroke-width="7"/>
<path d="M827.16 400.1C823.2 400.1 819.9 399 817.26 396.8C814.767 394.747 812.347 391.447 810 386.9C808.387 383.82 806.7 379.787 804.94 374.8C803.327 369.667 801.787 363.287 800.32 355.66C798.853 347.887 797.827 338.5 797.24 327.5L805.38 329.92C799.22 342.533 792.547 352.433 785.36 359.62C778.173 366.807 770.767 371.867 763.14 374.8C755.513 377.733 747.74 379.2 739.82 379.2C729.993 379.2 721.267 377.147 713.64 373.04C706.16 368.933 700.293 362.847 696.04 354.78C691.787 346.713 689.66 336.667 689.66 324.64C689.66 313.933 691.493 303.52 695.16 293.4C698.827 283.28 703.887 273.893 710.34 265.24C716.793 256.44 724.127 248.74 732.34 242.14C740.7 235.54 749.647 230.407 759.18 226.74C768.713 223.073 778.247 221.24 787.78 221.24C793.5 221.24 798.047 222.047 801.42 223.66C804.94 225.273 807.507 227.473 809.12 230.26C810.733 233.047 811.54 236.2 811.54 239.72C811.54 244.267 810.807 248.373 809.34 252.04C807.873 255.707 805.82 258.567 803.18 260.62C800.687 262.673 797.9 263.7 794.82 263.7C792.767 263.7 791.447 263.187 790.86 262.16C790.273 260.987 789.98 259.593 789.98 257.98C789.98 256.22 789.907 254.533 789.76 252.92C789.613 251.307 789.027 249.913 788 248.74C786.973 247.567 785.14 246.98 782.5 246.98C776.047 246.98 769.593 248.52 763.14 251.6C756.687 254.533 750.6 258.567 744.88 263.7C739.16 268.833 734.1 274.7 729.7 281.3C725.3 287.9 721.78 294.793 719.14 301.98C716.647 309.167 715.4 316.28 715.4 323.32C715.4 334.173 717.747 342.24 722.44 347.52C727.133 352.8 733.293 355.44 740.92 355.44C748.253 355.44 755 353.827 761.16 350.6C767.467 347.227 773.333 342.387 778.76 336.08C784.333 329.773 789.393 322 793.94 312.76C796.14 308.947 798.56 306.307 801.2 304.84C803.84 303.373 807.213 302.64 811.32 302.64C814.253 302.64 816.453 303.52 817.92 305.28C819.533 306.893 820.34 309.24 820.34 312.32C820.34 322 820.707 330.653 821.44 338.28C822.32 345.76 823.64 352.433 825.4 358.3C827.16 364.167 829.213 369.74 831.56 375.02C832.88 378.1 833.907 380.593 834.64 382.5C835.373 384.407 835.813 386.02 835.96 387.34C836.253 388.66 836.4 389.98 836.4 391.3C836.4 394.087 835.52 396.213 833.76 397.68C832.147 399.293 829.947 400.1 827.16 400.1ZM762.04 319.36C758.373 319.36 755.367 318.333 753.02 316.28C750.82 314.08 749.72 311.293 749.72 307.92C749.72 305.28 750.673 303.08 752.58 301.32C754.487 299.413 758.227 297.727 763.8 296.26C773.48 293.767 783.307 291.787 793.28 290.32C803.4 288.853 813.813 288.047 824.52 287.9C829.653 287.9 833.467 288.34 835.96 289.22C838.6 290.1 840.36 291.347 841.24 292.96C842.267 294.573 842.78 296.553 842.78 298.9C842.78 301.98 841.68 304.84 839.48 307.48C837.28 310.12 833.76 311.44 828.92 311.44C816.307 311.44 805.673 312.1 797.02 313.42C788.513 314.74 781.473 316.06 775.9 317.38C770.473 318.7 765.853 319.36 762.04 319.36ZM915.707 379.2C906.173 379.2 897.887 377.22 890.847 373.26C883.953 369.3 878.233 364.093 873.687 357.64C869.287 351.04 865.987 343.707 863.787 335.64C861.587 327.573 860.487 319.507 860.487 311.44C860.487 304.4 861 297.947 862.027 292.08C863.2 286.067 864.887 280.273 867.087 274.7C867.967 272.353 869.213 270.52 870.827 269.2C872.44 267.88 874.64 267.22 877.427 267.22C880.947 267.22 883.88 268.393 886.227 270.74C888.573 273.087 889.747 276.167 889.747 279.98C889.747 282.327 889.453 284.527 888.867 286.58C888.427 288.487 887.84 290.613 887.107 292.96C886.52 295.307 885.933 298.02 885.347 301.1C884.907 304.033 884.687 307.7 884.687 312.1C884.687 318.7 885.347 324.713 886.667 330.14C888.133 335.567 890.187 340.26 892.827 344.22C895.613 348.033 898.913 350.967 902.727 353.02C906.54 355.073 910.793 356.1 915.487 356.1C921.207 356.1 926.047 353.973 930.007 349.72C933.967 345.32 936.973 339.013 939.027 330.8C941.08 322.587 942.107 312.833 942.107 301.54C942.107 297.727 941.96 294.5 941.667 291.86C941.52 289.22 941.3 286.873 941.007 284.82C940.86 282.62 940.787 280.347 940.787 278C940.787 274.48 941.447 271.767 942.767 269.86C944.087 267.953 946.433 267 949.807 267C953.18 267 956.04 268.027 958.387 270.08C960.733 271.987 962.493 275.287 963.667 279.98C964.987 284.527 965.647 290.833 965.647 298.9C965.647 316.94 963.593 331.9 959.487 343.78C955.38 355.513 949.587 364.387 942.107 370.4C934.627 376.267 925.827 379.2 915.707 379.2ZM1021.72 379.2C1014.83 379.2 1008.74 377.733 1003.46 374.8C998.329 371.72 994.369 367.467 991.582 362.04C988.796 356.613 987.403 350.233 987.403 342.9C987.403 335.713 988.503 328.453 990.703 321.12C993.049 313.64 996.276 306.6 1000.38 300C1004.49 293.4 1009.33 287.533 1014.9 282.4C1020.48 277.12 1026.56 273.013 1033.16 270.08C1039.76 267 1046.73 265.46 1054.06 265.46C1058.02 265.46 1061.4 266.633 1064.18 268.98C1066.97 271.327 1068.36 274.773 1068.36 279.32C1068.36 281.227 1067.78 282.84 1066.6 284.16C1065.43 285.48 1063.74 286.287 1061.54 286.58C1051.57 287.9 1042.77 291.493 1035.14 297.36C1027.66 303.227 1021.8 310.267 1017.54 318.48C1013.44 326.693 1011.38 335.273 1011.38 344.22C1011.38 347.887 1011.68 351.26 1012.26 354.34C1012.85 357.273 1014.17 361.087 1016.22 365.78L1003.68 348.18C1007.06 351.407 1009.92 353.533 1012.26 354.56C1014.76 355.44 1017.98 355.88 1021.94 355.88C1030.6 355.88 1038.44 350.673 1045.48 340.26C1052.67 329.7 1057.88 314.3 1061.1 294.06C1061.54 290.98 1062.72 288.633 1064.62 287.02C1066.53 285.26 1068.88 284.38 1071.66 284.38C1075.92 284.38 1079.51 285.847 1082.44 288.78C1085.38 291.567 1087.36 295.16 1088.38 299.56C1090 307.48 1091.68 314.667 1093.44 321.12C1095.2 327.427 1097.55 333.513 1100.48 339.38C1103.42 345.1 1107.45 351.113 1112.58 357.42C1114.05 359.033 1114.86 361.087 1115 363.58C1115.15 365.927 1114.78 368.273 1113.9 370.62C1113.02 372.82 1111.63 374.727 1109.72 376.34C1107.96 377.807 1105.84 378.54 1103.34 378.54C1101.14 378.54 1099.31 378.1 1097.84 377.22C1096.52 376.34 1095.28 375.167 1094.1 373.7C1091.17 369.887 1088.46 366.073 1085.96 362.26C1083.47 358.3 1081.12 353.973 1078.92 349.28C1076.87 344.44 1075.04 338.867 1073.42 332.56C1071.96 326.107 1070.71 318.553 1069.68 309.9L1078.26 309.46C1075.33 326.767 1070.78 340.553 1064.62 350.82C1058.61 360.94 1051.86 368.2 1044.38 372.6C1036.9 377 1029.35 379.2 1021.72 379.2ZM1150.41 379.64C1147.77 379.64 1145.43 378.833 1143.37 377.22C1141.47 375.607 1139.93 373.407 1138.75 370.62C1137.73 367.687 1137.21 364.387 1137.21 360.72C1137.21 350.893 1136.99 341.58 1136.55 332.78C1136.26 323.98 1135.67 315.913 1134.79 308.58C1133.91 301.247 1132.74 295.087 1131.27 290.1C1130.1 286.58 1129.29 283.94 1128.85 282.18C1128.56 280.273 1128.41 278.293 1128.41 276.24C1128.41 273.6 1129.22 271.4 1130.83 269.64C1132.45 267.88 1135.01 267 1138.53 267C1141.61 267 1144.4 268.1 1146.89 270.3C1149.39 272.5 1151.51 276.313 1153.27 281.74C1155.03 287.02 1156.35 294.353 1157.23 303.74C1158.26 313.127 1158.7 325.08 1158.55 339.6L1149.53 335.86C1151.15 323.247 1153.86 312.467 1157.67 303.52C1161.63 294.573 1166.18 287.313 1171.31 281.74C1176.59 276.167 1182.09 272.06 1187.81 269.42C1193.53 266.78 1199.18 265.46 1204.75 265.46C1209.3 265.46 1212.45 266.633 1214.21 268.98C1216.12 271.18 1217.07 273.967 1217.07 277.34C1217.07 279.98 1216.19 282.4 1214.43 284.6C1212.82 286.653 1209.96 288.413 1205.85 289.88C1198.23 292.227 1191.85 295.6 1186.71 300C1181.58 304.4 1177.4 309.68 1174.17 315.84C1171.09 322 1168.67 328.893 1166.91 336.52C1165.3 344.147 1164.13 352.433 1163.39 361.38C1162.95 366.22 1162.22 369.96 1161.19 372.6C1160.17 375.24 1158.77 377.073 1157.01 378.1C1155.25 379.127 1153.05 379.64 1150.41 379.64ZM1277.55 378.98C1270.22 378.98 1263.47 377.293 1257.31 373.92C1251.15 370.547 1245.87 365.927 1241.47 360.06C1237.07 354.193 1233.63 347.447 1231.13 339.82C1228.79 332.193 1227.61 324.127 1227.61 315.62C1227.61 305.5 1229.67 296.7 1233.77 289.22C1238.03 281.593 1243.89 275.727 1251.37 271.62C1259 267.367 1267.8 265.24 1277.77 265.24C1285.25 265.24 1291.71 266.34 1297.13 268.54C1302.56 270.593 1306.74 273.527 1309.67 277.34C1312.61 281.007 1314.07 285.407 1314.07 290.54C1314.07 292.74 1313.49 294.573 1312.31 296.04C1311.29 297.36 1309.97 298.02 1308.35 298.02C1306.59 298.02 1305.05 297.58 1303.73 296.7C1302.41 295.82 1300.95 294.793 1299.33 293.62C1297.72 292.447 1295.52 291.42 1292.73 290.54C1290.09 289.66 1286.43 289.22 1281.73 289.22C1272.49 289.22 1265.31 291.567 1260.17 296.26C1255.04 300.953 1252.47 307.407 1252.47 315.62C1252.47 322.66 1253.65 329.187 1255.99 335.2C1258.34 341.067 1261.35 345.833 1265.01 349.5C1268.68 353.167 1272.42 355 1276.23 355C1283.86 355 1290.61 349.94 1296.47 339.82C1302.34 329.553 1306.96 314.667 1310.33 295.16C1313.85 275.653 1315.61 251.967 1315.61 224.1C1315.61 218.967 1316.57 215.3 1318.47 213.1C1320.53 210.9 1323.17 209.8 1326.39 209.8C1330.94 209.8 1334.46 211.927 1336.95 216.18C1339.59 220.287 1340.77 226.3 1340.47 234.22C1340.18 244.633 1339.59 253.873 1338.71 261.94C1337.98 270.007 1337.17 277.853 1336.29 285.48C1335.56 292.96 1335.19 301.32 1335.19 310.56C1335.19 319.8 1335.78 327.353 1336.95 333.22C1338.13 339.087 1339.59 343.78 1341.35 347.3C1343.11 350.82 1344.8 353.68 1346.41 355.88C1348.17 357.933 1349.64 359.84 1350.81 361.6C1352.13 363.36 1352.79 365.487 1352.79 367.98C1352.79 370.18 1352.28 372.233 1351.25 374.14C1350.23 375.9 1348.76 377.293 1346.85 378.32C1345.09 379.347 1342.82 379.86 1340.03 379.86C1336.22 379.86 1332.63 378.247 1329.25 375.02C1325.88 371.793 1322.87 367.393 1320.23 361.82C1317.74 356.247 1315.83 349.94 1314.51 342.9C1313.19 335.713 1312.61 328.233 1312.75 320.46L1325.73 316.72C1322.65 331.827 1318.47 344 1313.19 353.24C1308.06 362.333 1302.34 368.933 1296.03 373.04C1289.87 377 1283.71 378.98 1277.55 378.98ZM1392.76 379.64C1390.12 379.64 1387.77 378.833 1385.72 377.22C1383.81 375.607 1382.27 373.407 1381.1 370.62C1380.07 367.687 1379.56 364.387 1379.56 360.72C1379.56 350.893 1379.34 341.58 1378.9 332.78C1378.6 323.98 1378.02 315.913 1377.14 308.58C1376.26 301.247 1375.08 295.087 1373.62 290.1C1372.44 286.58 1371.64 283.94 1371.2 282.18C1370.9 280.273 1370.76 278.293 1370.76 276.24C1370.76 273.6 1371.56 271.4 1373.18 269.64C1374.79 267.88 1377.36 267 1380.88 267C1383.96 267 1386.74 268.1 1389.24 270.3C1391.73 272.5 1393.86 276.313 1395.62 281.74C1397.38 287.02 1398.7 294.353 1399.58 303.74C1400.6 313.127 1401.04 325.08 1400.9 339.6L1391.88 335.86C1393.49 323.247 1396.2 312.467 1400.02 303.52C1403.98 294.573 1408.52 287.313 1413.66 281.74C1418.94 276.167 1424.44 272.06 1430.16 269.42C1435.88 266.78 1441.52 265.46 1447.1 265.46C1451.64 265.46 1454.8 266.633 1456.56 268.98C1458.46 271.18 1459.42 273.967 1459.42 277.34C1459.42 279.98 1458.54 282.4 1456.78 284.6C1455.16 286.653 1452.3 288.413 1448.2 289.88C1440.57 292.227 1434.19 295.6 1429.06 300C1423.92 304.4 1419.74 309.68 1416.52 315.84C1413.44 322 1411.02 328.893 1409.26 336.52C1407.64 344.147 1406.47 352.433 1405.74 361.38C1405.3 366.22 1404.56 369.96 1403.54 372.6C1402.51 375.24 1401.12 377.073 1399.36 378.1C1397.6 379.127 1395.4 379.64 1392.76 379.64ZM1497.39 379.2C1490.49 379.2 1484.41 377.733 1479.13 374.8C1473.99 371.72 1470.03 367.467 1467.25 362.04C1464.46 356.613 1463.07 350.233 1463.07 342.9C1463.07 335.713 1464.17 328.453 1466.37 321.12C1468.71 313.64 1471.94 306.6 1476.05 300C1480.15 293.4 1484.99 287.533 1490.57 282.4C1496.14 277.12 1502.23 273.013 1508.83 270.08C1515.43 267 1522.39 265.46 1529.73 265.46C1533.69 265.46 1537.06 266.633 1539.85 268.98C1542.63 271.327 1544.03 274.773 1544.03 279.32C1544.03 281.227 1543.44 282.84 1542.27 284.16C1541.09 285.48 1539.41 286.287 1537.21 286.58C1527.23 287.9 1518.43 291.493 1510.81 297.36C1503.33 303.227 1497.46 310.267 1493.21 318.48C1489.1 326.693 1487.05 335.273 1487.05 344.22C1487.05 347.887 1487.34 351.26 1487.93 354.34C1488.51 357.273 1489.83 361.087 1491.89 365.78L1479.35 348.18C1482.72 351.407 1485.58 353.533 1487.93 354.56C1490.42 355.44 1493.65 355.88 1497.61 355.88C1506.26 355.88 1514.11 350.673 1521.15 340.26C1528.33 329.7 1533.54 314.3 1536.77 294.06C1537.21 290.98 1538.38 288.633 1540.29 287.02C1542.19 285.26 1544.54 284.38 1547.33 284.38C1551.58 284.38 1555.17 285.847 1558.11 288.78C1561.04 291.567 1563.02 295.16 1564.05 299.56C1565.66 307.48 1567.35 314.667 1569.11 321.12C1570.87 327.427 1573.21 333.513 1576.15 339.38C1579.08 345.1 1583.11 351.113 1588.25 357.42C1589.71 359.033 1590.52 361.087 1590.67 363.58C1590.81 365.927 1590.45 368.273 1589.57 370.62C1588.69 372.82 1587.29 374.727 1585.39 376.34C1583.63 377.807 1581.5 378.54 1579.01 378.54C1576.81 378.54 1574.97 378.1 1573.51 377.22C1572.19 376.34 1570.94 375.167 1569.77 373.7C1566.83 369.887 1564.12 366.073 1561.63 362.26C1559.13 358.3 1556.79 353.973 1554.59 349.28C1552.53 344.44 1550.7 338.867 1549.09 332.56C1547.62 326.107 1546.37 318.553 1545.35 309.9L1553.93 309.46C1551.73 322.367 1548.57 333.293 1544.47 342.24C1540.51 351.187 1535.96 358.373 1530.83 363.8C1525.69 369.227 1520.27 373.187 1514.55 375.68C1508.83 378.027 1503.11 379.2 1497.39 379.2ZM1625.57 379.42C1622.34 379.42 1619.78 378.687 1617.87 377.22C1615.96 375.753 1614.5 373.7 1613.47 371.06C1612.59 368.273 1612.15 365.047 1612.15 361.38C1612.15 350.527 1612.08 341.36 1611.93 333.88C1611.93 326.253 1611.86 319.653 1611.71 314.08C1611.71 308.507 1611.64 303.3 1611.49 298.46C1611.49 293.62 1611.49 288.487 1611.49 283.06C1611.49 279.833 1612 276.973 1613.03 274.48C1614.06 271.84 1615.6 269.787 1617.65 268.32C1619.85 266.853 1622.64 266.12 1626.01 266.12C1629.97 266.12 1633.12 267.44 1635.47 270.08C1637.82 272.573 1639.06 276.46 1639.21 281.74C1639.21 284.82 1639.14 289.22 1638.99 294.94C1638.99 300.66 1638.84 306.967 1638.55 313.86C1638.4 320.607 1638.18 327.5 1637.89 334.54C1637.74 341.433 1637.6 347.74 1637.45 353.46C1637.3 359.18 1637.23 363.8 1637.23 367.32C1637.23 370.693 1636.28 373.553 1634.37 375.9C1632.46 378.247 1629.53 379.42 1625.57 379.42ZM1627.55 248.74C1621.54 248.74 1616.55 247.053 1612.59 243.68C1608.63 240.16 1606.65 235.98 1606.65 231.14C1606.65 226.447 1608.26 222.707 1611.49 219.92C1614.72 217.133 1618.82 215.74 1623.81 215.74C1627.92 215.74 1631.44 216.693 1634.37 218.6C1637.3 220.507 1639.5 222.927 1640.97 225.86C1642.58 228.793 1643.39 231.727 1643.39 234.66C1643.39 238.033 1642.14 241.26 1639.65 244.34C1637.3 247.273 1633.27 248.74 1627.55 248.74ZM1703.69 379.42C1700.47 379.42 1697.24 378.907 1694.01 377.88C1690.79 377 1687.78 375.24 1684.99 372.6C1682.21 369.813 1679.71 365.78 1677.51 360.5C1675.31 355.22 1673.55 348.253 1672.23 339.6C1671.06 330.947 1670.47 320.167 1670.47 307.26C1670.47 295.38 1670.69 284.747 1671.13 275.36C1671.72 265.827 1672.53 256.953 1673.55 248.74C1674.58 240.527 1675.75 232.46 1677.07 224.54C1677.95 219.113 1679.27 215.3 1681.03 213.1C1682.94 210.9 1685.36 209.8 1688.29 209.8C1692.25 209.8 1695.33 211.34 1697.53 214.42C1699.73 217.5 1700.83 222.487 1700.83 229.38C1700.83 233.633 1700.54 238.253 1699.95 243.24C1699.37 248.08 1698.71 253.653 1697.97 259.96C1697.24 266.12 1696.58 273.453 1695.99 281.96C1695.41 290.32 1695.11 300.22 1695.11 311.66C1695.11 320.607 1695.41 328.013 1695.99 333.88C1696.58 339.6 1697.31 344.073 1698.19 347.3C1699.22 350.527 1700.39 352.8 1701.71 354.12C1703.18 355.44 1704.65 356.1 1706.11 356.1C1707.87 356.1 1709.27 355.953 1710.29 355.66C1711.47 355.22 1712.42 354.853 1713.15 354.56C1713.89 354.267 1714.69 354.12 1715.57 354.12C1718.8 354.12 1720.93 355 1721.95 356.76C1723.13 358.52 1723.71 360.72 1723.71 363.36C1723.71 368.2 1721.73 372.087 1717.77 375.02C1713.81 377.953 1709.12 379.42 1703.69 379.42ZM1767.58 379.2C1760.1 379.2 1753.94 378.247 1749.1 376.34C1744.26 374.433 1740.67 372.013 1738.32 369.08C1736.12 366.147 1735.02 362.993 1735.02 359.62C1735.02 357.127 1735.76 355.073 1737.22 353.46C1738.84 351.847 1741.11 351.04 1744.04 351.04C1745.66 351.04 1747.05 351.333 1748.22 351.92C1749.54 352.507 1750.94 353.167 1752.4 353.9C1754.02 354.633 1755.92 355.293 1758.12 355.88C1760.47 356.467 1763.48 356.76 1767.14 356.76C1776.24 356.76 1783.94 355.733 1790.24 353.68C1796.7 351.48 1801.17 348.107 1803.66 343.56C1802.49 340.627 1800.14 338.353 1796.62 336.74C1793.1 335.127 1788.92 333.733 1784.08 332.56C1779.24 331.387 1774.18 330.14 1768.9 328.82C1763.77 327.353 1758.93 325.593 1754.38 323.54C1749.98 321.34 1746.39 318.48 1743.6 314.96C1740.82 311.44 1739.42 306.893 1739.42 301.32C1739.42 295.6 1741.11 290.467 1744.48 285.92C1747.86 281.373 1752.33 277.56 1757.9 274.48C1763.48 271.4 1769.64 269.053 1776.38 267.44C1783.13 265.827 1789.88 265.093 1796.62 265.24C1801.17 265.24 1804.98 265.973 1808.06 267.44C1811.14 268.907 1813.42 270.813 1814.88 273.16C1816.5 275.507 1817.3 277.927 1817.3 280.42C1817.3 283.06 1816.57 285.187 1815.1 286.8C1813.78 288.413 1811.73 289.22 1808.94 289.22C1807.62 289.22 1806.38 289.147 1805.2 289C1804.18 288.853 1803 288.78 1801.68 288.78C1800.36 288.633 1798.6 288.56 1796.4 288.56C1788.19 288.56 1781.08 289.733 1775.06 292.08C1769.05 294.28 1764.58 297.653 1761.64 302.2C1762.52 304.84 1764.72 306.967 1768.24 308.58C1771.76 310.193 1775.94 311.587 1780.78 312.76C1785.77 313.933 1790.9 315.18 1796.18 316.5C1801.61 317.82 1806.6 319.58 1811.14 321.78C1815.84 323.833 1819.65 326.62 1822.58 330.14C1825.52 333.66 1826.98 338.133 1826.98 343.56C1826.98 351.773 1824.27 358.52 1818.84 363.8C1813.42 369.08 1806.23 372.967 1797.28 375.46C1788.34 377.953 1778.44 379.2 1767.58 379.2Z" fill="#090A0B"/>
</g>
<defs>
<clipPath id="clip0_4673_8764">
<rect width="1952" height="600" fill="white"/>
</clipPath>
</defs>
</svg>
